<?xml version="1.0" encoding="utf-8"?>
<!-- Generator: Adobe Illustrator 22.0.0, SVG Export Plug-In . SVG Version: 6.00 Build 0)  -->
<svg version="1.1" id="Capa_1" xmlns="http://www.w3.org/2000/svg" xmlns:xlink="http://www.w3.org/1999/xlink" x="0px" y="0px"
	 viewBox="0 0 82.6 78.7" style="enable-background:new 0 0 82.6 78.7;" xml:space="preserve">
<style type="text/css">
	.st0{fill:none;stroke:#62E0D9;stroke-width:2.7283;}
	.st1{fill:none;}
</style>
<g>
	<path class="st0" d="M49.3,31.7L38.4,42.8l-8-8.2l-4,4.1l12,12.3l18.3-18.7l-4-4.1L49.3,31.7z"/>
	<path class="st0" d="M61.1,8.9c-4.8,0-9.5-1-13.8-3.1c-2.1-1-4.2-2.3-6-3.8c-1.8,1.6-3.9,2.8-6,3.8c-4.3,2.1-9,3.1-13.8,3.1h-9.4
		V45c0,6.3,2.5,12.4,7,16.8c6.5,6.5,22.2,14.8,22.2,14.8S57,68.3,63.6,61.9c4.5-4.4,7-10.5,7-16.8V8.9C70.5,8.9,61.1,8.9,61.1,8.9z"
		/>
	<path class="st0" d="M62.9,22v23.4c0,4.2-1.7,8.3-4.6,11.2c-4.1,4-13.5,9.6-16.9,11.6c-3.5-2-12.8-7.5-16.9-11.6
		c-3-2.9-4.6-7-4.6-11.2V17h1.8c6,0,11.9-1.3,17.1-3.9c0.9-0.4,1.8-0.9,2.7-1.4c0.9,0.5,1.8,1,2.7,1.4c5.2,2.5,11.1,3.8,17,3.8h1.8
		V22z"/>
</g>
<rect class="st1" width="83" height="78"/>
</svg>
