<svg version="1.1"
	 xmlns="http://www.w3.org/2000/svg" xmlns:xlink="http://www.w3.org/1999/xlink" xmlns:a="http://ns.adobe.com/AdobeSVGViewerExtensions/3.0/"
	 x="0px" y="0px" width="830px" height="267.9px" viewBox="0 0 830 267.9"
	 style="overflow:scroll;enable-background:new 0 0 830 267.9;" xml:space="preserve">
<style type="text/css">
	.st0{fill:#FFFFFF;}
</style>
<defs>
</defs>
<g>
	<g>
		<g>
			<path class="st0" d="M87.6,205.2c-17.9-3.1-23,2.3-24.4,5.1c-0.3,0.5,0.3,1.1,0.8,0.9c7.2-2.7,22.6-1.7,23.6-1.6c0,0,0.1,0,0.1,0
				c1-0.1,16.4-1.1,23.6,1.6c0.6,0.2,1.1-0.4,0.8-0.9c-1.4-2.8-6.5-8.2-24.4-5.1C87.8,205.2,87.7,205.2,87.6,205.2z"/>
			<path class="st0" d="M160.5,168.1c0,0-12.1,34.7-34.1,59.4c0,0-34.9,43.1-34.9,9.1c0-1.6-1.1-3-2.7-3.1c0,0,0,0,0,0c0,0,0,0,0,0
				c-1.6,0.1-2.7,1.5-2.7,3.1c0,34.1-34.9-9.1-34.9-9.1c-22-24.6-34.1-59.4-34.1-59.4h0c-1.1-0.2-2,0.9-1.7,1.9
				c27.5,100.6,73.5,97.9,73.5,97.9s46.1,2.7,73.5-97.9C162.5,169,161.6,168,160.5,168.1L160.5,168.1z"/>
			<g>
				<path class="st0" d="M184,35.7c-0.1-1.7-0.9-12.6-15.2-17c-0.8-0.2-1.4,0.7-0.9,1.3c2.5,3.1,6.3,8.9,3.4,13.5
					c-0.2,0.2-0.5,0.2-0.7,0c-1.9-3.6-12.7-23.6-21.7-28.8c-0.7-0.4-1.4,0.4-1,1.1c1.8,2.6,4.3,7.3,3.3,11.9
					c-0.1,0.3-0.5,0.4-0.7,0.1c-2.1-4-11.2-20-23.1-17.3c-0.9,0.2-1.2,1.3-0.5,1.9c1.3,1.2,3,2.9,3.3,3.5c0,0,1.7,3-1.1,2.5
					c0,0-73.1-14.2-96.8,23.7c0,0.1-0.1,0.1-0.2,0.1C30.3,32.8,3.5,44.5,0.1,56.7c0,0,0,0,0,0.1c0,0.6-0.6,8.1,4.4,16.3
					c0.2,0.3,0.7,0.2,0.7-0.2C5,68.3,4.9,54.2,9.8,56.7c0.2,0.1,0.3,0.3,0.2,0.5c-0.7,1.9-4.5,13.2-0.7,34.3c0,0,0,0,0,0.1
					c0,0.8,0.5,29,2.1,49c0.2,1.9,3,1.9,3.2,0c2-15.6,7.4-44.8,20.8-48.4c0,0,19.5-5.4,21.4-2.4c0.1,0.1,0.1,0.3,0,0.5l-10.2,11.4
					c-0.6,0.6,0.2,1.5,0.9,1.1c9.9-6.1,33.7-19.8,40.7-14c0.8,0.7,2,0.9,3,0.6c5.5-1.7,21.9-6.3,40.8-7.2c0,0,23.3-2.2,25.8,13.1
					c0,0,4.4,25.6,4.5,45.4c0,1.8,2.6,2.2,3.1,0.4c9.6-32.9,27.7-99.9,18.7-105C184.1,35.9,184,35.8,184,35.7z M94,82.1
					c-0.1,0.1-0.7,0-0.5-0.3c36.7-59.6-1.9-64.7-15-64.7c-0.5,0-0.5-0.7-0.1-0.7C145.8,1.8,98.4,75.4,94,82.1z M94.3,66.3
					c-3.7-22.3-26-22.7-34.5-22c-0.4,0-0.6-0.6-0.1-0.7c30.5-10.1,35,11.3,35.4,22.7C95,66.7,94.3,66.8,94.3,66.3z M16.5,61.1
					c43.4-19.4,65.9,6,73.4,17.4c0.3,0.4-0.3,0.8-0.6,0.5C68,54.4,28.2,59.7,16.7,61.8C16.2,61.9,16.1,61.3,16.5,61.1z M95.4,82.4
					c-0.3,0.2-0.7-0.2-0.5-0.4c36.8-30.5,28.5-52.9,26.2-57.3c-0.2-0.3,0.1-0.6,0.4-0.5C157.4,35,103,76.7,95.4,82.4z"/>
			</g>
		</g>
	</g>
	<g>
		<path class="st0" d="M273.9,141.3l0.1,38.6h-19.2V88.2h65.3v16.2h-46.3l0.1,20.6h40.3v16.2H273.9z"/>
		<path class="st0" d="M393.4,88.2v16.2h-48.7v19.2h44.7v16.2h-44.7v23.8h50.9v16.2H326V88.2H393.4z"/>
		<path class="st0" d="M420.8,88.2v75h45.6v16.6h-64.8V88.2H420.8z"/>
		<path class="st0" d="M491.5,88.2v91.6h-19.2V88.2H491.5z"/>
		<path class="st0" d="M517,146.8v33.1h-19V88.2h41.9c8.9,0,15.8,2.6,20.9,7.8c5.1,5.2,7.6,12.4,7.6,21.5c0,6.5-1.8,12.4-5.4,17.7
			c-5.1,7.7-13.1,11.5-24,11.5H517z M517,130.9h17.8c6.1,0,10.3-1.9,12.5-5.6c1.2-2,1.8-4.9,1.8-8.6c0-4.5-1.3-7.7-4-9.7
			c-2.6-1.9-6.9-2.9-12.9-2.9H517V130.9z"/>
		<path class="st0" d="M641.9,88.2v16.2h-48.7v19.2h44.7v16.2h-44.7v23.8h50.9v16.2h-69.7V88.2H641.9z"/>
		<path class="st0" d="M666.8,151.6h18.4c0,3.8,1.1,6.9,3.3,9.3c3.3,3.7,8.7,5.5,16.1,5.5c5.5,0,9.8-0.8,13-2.3
			c4.1-2,6.1-5.2,6.1-9.6c0-3.3-1.5-5.8-4.6-7.5c-2-1.1-6.1-2.4-12-3.8l-9.8-2.3c-9.8-2.3-16.5-4.7-20.1-7.2
			c-6.1-4.2-9.1-10.8-9.1-19.8c0-7.1,2.1-13,6.4-17.9c6-6.9,15.7-10.4,28.9-10.4c12.5,0,22,3.5,28.4,10.6c4.9,5.4,7.3,11.7,7.3,19
			h-18.4c-0.4-3.7-1.5-6.5-3.2-8.4c-3.1-3.6-8.2-5.4-15.6-5.4c-4.3,0-7.9,0.8-10.7,2.3c-3.5,2-5.2,4.9-5.2,8.7
			c0,3.2,1.1,5.5,3.4,7.2c1.3,0.9,3.4,1.7,6.2,2.4l22.4,5.5c7.6,1.9,13.1,4.3,16.7,7.3c4.8,4,7.3,9.8,7.3,17.4
			c0,9.3-3.1,16.5-9.2,21.6c-6.7,5.6-15.7,8.4-27,8.4c-14.9,0-25.6-3.7-32.2-11C669.2,166.1,666.8,159.5,666.8,151.6z"/>
		<path class="st0" d="M830,118.1h-19.2c-1.2-4.4-2.8-7.8-4.9-10c-3.5-3.9-8.7-5.9-15.6-5.9c-5.9,0-10.8,2.1-14.7,6.3
			c-5.3,5.6-7.9,14.2-7.9,25.8c0,9,1.7,16.3,5.2,21.9c4,6.3,9.8,9.5,17.5,9.5c5.4,0,9.8-1.5,13.3-4.4c3.5-2.9,5.8-7.2,6.9-12.8h19.2
			c-2,10.5-6.1,18.6-12.5,24.4c-6.9,6.3-16,9.5-27.2,9.5c-12.6,0-22.7-4-30.2-12.1c-7.9-8.5-11.9-20.5-11.9-36
			c0-15.5,4.1-27.6,12.3-36.3c7.6-8.1,17.6-12.1,30-12.1c12.4,0,22.3,3.7,29.7,11.1C826,102.8,829.3,109.9,830,118.1z"/>
	</g>
</g>
</svg>