<svg version="1.1"
	 xmlns="http://www.w3.org/2000/svg" xmlns:xlink="http://www.w3.org/1999/xlink" xmlns:a="http://ns.adobe.com/AdobeSVGViewerExtensions/3.0/"
	 x="0px" y="0px" width="999px" height="999px" viewBox="0 0 999 999" style="overflow:scroll;enable-background:new 0 0 999 999;"
	 xml:space="preserve">
<style type="text/css">
	.st0{fill:#5CB501;}
	.st1{fill:#FFFFFF;}
</style>
<defs>
</defs>
<g>
	<circle class="st0" cx="499.5" cy="499.5" r="499.5"/>
	<path class="st1" d="M499.5,235C354,235,235,354,235,499.5S354,764,499.5,764S764,645,764,499.5S646.3,235,499.5,235z M621.2,617.2
		c-5.3,8-14.6,10.5-22.5,5.3c-62.2-38.3-140.2-46.3-232.8-25.1c-9.3,2.7-17.1-3.9-19.8-11.9c-2.7-9.3,3.9-17.2,11.9-19.8
		c100.5-22.5,187.8-13.2,256.5,29.1C623.8,598.7,625.2,609.2,621.2,617.2L621.2,617.2z M652.9,544.4c-6.6,9.3-18.5,13.2-27.8,6.6
		c-71.4-43.6-179.9-56.8-263.2-30.4c-10.5,2.7-22.5-2.7-25.1-13.2c-2.7-10.5,2.7-22.5,13.2-25.1c96.5-29.1,215.5-14.6,297.6,35.8
		C655.5,522,659.5,535.3,652.9,544.4L652.9,544.4z M655.5,470.4c-84.6-50.2-226.2-55.6-306.9-30.4c-13.2,3.9-26.5-3.9-30.4-15.9
		c-3.9-13.2,3.9-26.5,15.9-30.4c93.9-27.8,248.6-22.5,346.5,35.7c11.9,6.6,15.9,22.5,9.3,34.4C683.3,473,667.5,477,655.5,470.4
		L655.5,470.4z"/>
</g>
</svg>