<svg version="1.1"
	 xmlns="http://www.w3.org/2000/svg" xmlns:xlink="http://www.w3.org/1999/xlink" xmlns:a="http://ns.adobe.com/AdobeSVGViewerExtensions/3.0/"
	 x="0px" y="0px" width="999px" height="999px" viewBox="0 0 999 999" style="overflow:scroll;enable-background:new 0 0 999 999;"
	 xml:space="preserve">
<style type="text/css">
	.st0{fill:#23A4D7;}
	.st1{fill:#FFFFFF;}
</style>
<defs>
</defs>
<g>
	<circle class="st0" cx="499.5" cy="499.5" r="499.5"/>
	<path class="st1" d="M790,319.3c-21.3,9.5-44.4,15.9-68.4,18.7c24.6-14.8,43.5-38.1,52.4-65.9c-23,13.6-48.6,23.6-75.7,28.9
		c-21.8-23.1-52.8-37.6-87-37.6c-65.8,0-119.1,53.3-119.1,119.1c0,9.3,1,18.4,3.1,27.1c-99-5-186.9-52.4-245.6-124.6
		c-10.2,17.6-16.1,38.1-16.1,59.9c0,41.3,21,77.8,53,99.2c-19.5-0.6-37.9-6-54-14.9c0,0.5,0,1,0,1.5c0,57.7,41.1,106,95.7,116.9
		c-10,2.7-20.5,4.2-31.4,4.2c-7.7,0-15.1-0.8-22.5-2.2c15.2,47.3,59.2,81.8,111.3,82.8c-40.8,32-92.1,51.1-148.1,51.1
		c-9.6,0-19.1-0.6-28.5-1.7c52.9,33.9,115.5,53.6,182.8,53.6c219.2,0,339.1-181.6,339.1-339.1c0-5.2-0.1-10.3-0.3-15.4
		C753.8,364.3,774,343.3,790,319.3L790,319.3z"/>
</g>
</svg>