<svg version="1.1"
	 xmlns="http://www.w3.org/2000/svg" xmlns:xlink="http://www.w3.org/1999/xlink" xmlns:a="http://ns.adobe.com/AdobeSVGViewerExtensions/3.0/"
	 x="0px" y="0px" width="999px" height="999px" viewBox="0 0 999 999" style="overflow:scroll;enable-background:new 0 0 999 999;"
	 xml:space="preserve">
<style type="text/css">
	.st0{fill:#FC3532;}
	.st1{fill:#FFFFFF;}
</style>
<defs>
</defs>
<g>
	<circle class="st0" cx="499.5" cy="499.5" r="499.5"/>
	<path class="st1" d="M554,593v56.7c0,12.1-3.5,18-10.5,18c-4,0-8.1-1.9-12.1-5.9v-80.9c4-4,8.1-5.9,12.1-5.9
		C550.6,575,554,581.2,554,593z M644.8,593.3v12.4h-24.2v-12.4c0-12.1,4-18.3,12.1-18.3S644.8,581.2,644.8,593.3z M385.3,534.7h28.7
		v-25.3h-83.8v25.3h28.2v152.9h26.9L385.3,534.7L385.3,534.7z M462.7,687.6h23.9V554.8h-23.9v101.6c-5.4,7.5-10.5,11.3-15.3,11.3
		c-3.2,0-5.1-1.9-5.6-5.6c-0.3-0.8-0.3-3.8-0.3-9.4v-97.8h-23.9v105c0,9.4,0.8,15.6,2.1,19.6c2.1,6.7,7.8,9.9,15.6,9.9
		c8.6,0,17.7-5.4,27.4-16.4L462.7,687.6L462.7,687.6z M577.9,647.8v-52.9c0-12.4-0.5-21.2-2.4-26.6c-3-9.9-9.7-15-19.1-15
		c-8.9,0-17.2,4.8-25,14.5v-58.3h-23.9v178.1h23.9v-12.9c8.1,9.9,16.4,14.8,25,14.8c9.4,0,16.1-5.1,19.1-14.8
		C577.4,669,577.9,660.1,577.9,647.8L577.9,647.8z M668.8,645.1v-3.5h-24.5c0,9.7-0.3,15-0.5,16.4c-1.3,6.4-4.8,9.7-10.7,9.7
		c-8.3,0-12.4-6.2-12.4-18.5v-23.4h48.1v-27.7c0-14.2-2.4-24.5-7.3-31.2c-7-9.1-16.4-13.7-28.5-13.7c-12.4,0-21.8,4.6-28.7,13.7
		c-5.1,6.7-7.5,16.9-7.5,31.2v46.5c0,14.2,2.7,24.7,7.8,31.2c7,9.1,16.4,13.7,29,13.7c12.6,0,22.6-4.8,29-14.2
		c3-4.3,5.1-9.1,5.6-14.5C668.7,658.3,668.7,652.9,668.8,645.1L668.8,645.1z M505.4,399.8v-56.4c0-12.4-3.5-18.5-11.6-18.5
		c-7.8,0-11.6,6.2-11.6,18.5v56.4c0,12.4,3.8,18.8,11.6,18.8C501.9,418.6,505.4,412.2,505.4,399.8z M698.6,601.6
		c0,30.9-0.3,63.9-7,94c-5.1,21.2-22.3,36.8-43,39c-49.4,5.6-99.4,5.6-149.1,5.6s-99.7,0-149.1-5.6c-20.7-2.1-38.2-17.7-43-39
		c-7-30.1-7-63.1-7-94l0,0c0-31.2,0.3-63.9,7-94c5.1-21.2,22.3-36.8,43.3-39.2c49.2-5.4,99.1-5.4,148.8-5.4s99.7,0,149.1,5.4
		c20.7,2.4,38.2,18,43,39.2C698.6,537.7,698.6,570.4,698.6,601.6z M430.4,258.8h27.4L425.3,366v72.8h-26.9V366
		c-2.4-13.2-7.8-32-16.4-57c-5.9-16.7-11.8-33.6-17.5-50.2h28.5l19.1,70.7L430.4,258.8z M529.9,348.2v47c0,14.2-2.4,25-7.5,31.7
		c-6.7,9.1-16.1,13.7-28.5,13.7c-12.1,0-21.5-4.6-28.2-13.7c-5.1-7-7.5-17.5-7.5-31.7v-47c0-14.2,2.4-24.7,7.5-31.4
		c6.7-9.1,16.1-13.7,28.2-13.7c12.4,0,21.8,4.6,28.5,13.7C527.4,323.5,529.9,334,529.9,348.2z M619.9,304.7v134.1h-24.5V424
		c-9.7,11.3-18.8,16.7-27.7,16.7c-7.8,0-13.4-3.2-15.9-9.9c-1.3-4-2.1-10.5-2.1-20.2V304.7h24.5v98.6c0,5.6,0,8.9,0.3,9.4
		c0.5,3.8,2.4,5.9,5.6,5.9c4.8,0,9.9-3.8,15.3-11.6V304.7L619.9,304.7L619.9,304.7z"/>
</g>
</svg>